[Header]
FileType HTR
DataType HTRS
FileVersion 1
NumSegments 22
NumFrames 4
DataFrameRate 24
EulerRotationOrder ZYX
CalibrationUnits mm
RotationUnits Degrees
GlobalAxisofGravity Y
BoneLengthAxis Y
ScaleFactor 1.0
[SegmentNames&Hierarchy]
reference	GLOBAL
Hips	reference
Spine	Hips
Spine1	Spine
Neck	Spine1
Head	Neck
LeftShoulder	Spine1
LeftArm	LeftShoulder
LeftForeArm	LeftArm
LeftHand	LeftForeArm
RightShoulder	Spine1
RightArm	RightShoulder
RightForeArm	RightArm
RightHand	RightForeArm
LeftUpLeg	Hips
LeftLeg	LeftUpLeg
LeftFoot	LeftLeg
LeftToeBase	LeftFoot
RightUpLeg	Hips
RightLeg	RightUpLeg
RightFoot	RightLeg
RightToeBase	RightFoot
[BasePosition]
reference	0	0	0	0	0	0	1
Hips	0	0	0	0	0	0	1
Spine	0	0	0	0	-0	90	1
Spine1	0	0	0	0	0	0	1
Neck	0	0	0	-7.352430803	-7.352430803	90	1
Head	0	0	0	0	-0	90	1
LeftShoulder	0	0	0	0	0	0	1
LeftArm	0	0	0	0	0	0	1
LeftForeArm	0	0	0	0	0	0	1
LeftHand	0	0	0	0	0	0	1
RightShoulder	0	0	0	0	-0	180	1
RightArm	0	0	0	0	-0	180	1
RightForeArm	0	0	0	0	-0	180	1
RightHand	0	0	0	0	-0	180	1
LeftUpLeg	0	0	0	0	-0	-90	1
LeftLeg	0	0	0	0	-0	-90	1
LeftFoot	0	0	0	66.57150701	-66.57150701	-90	1
LeftToeBase	0	0	0	0	-90	0	1
RightUpLeg	0	0	0	0	-0	-90	1
RightLeg	0	0	0	0	-0	-90	1
RightFoot	0	0	0	66.57150701	-66.57150701	-90	1
RightToeBase	0	0	0	0	-90	0	1
[reference]
64	0	0	0	0	-0	0	1.0
65	0	0	0	0	-0	0	1.0
66	0	0	0	0	-0	0	1.0
67	0	0	0	0	-0	0	1.0
[Hips]
64	-0.625228405	8.652990341	-0.546538949	12.31544304	-55.85438538	-8.547327042	1.0
65	-0.6300510168	8.652990341	-0.5566412807	12.62625027	-56.94527054	-8.750221252	1.0
66	-0.6352148056	8.652990341	-0.5667407513	12.8430624	-58.07435226	-8.85329628	1.0
67	-0.6410752535	8.652990341	-0.5768198371	13.25857544	-59.08724213	-9.158416748	1.0
[Spine]
64	0	0.7478299737	0	-18.04729462	0.3856702447	-88.01628113	1.0
65	0	0.7478299737	0	-17.79797363	0.4351152182	-87.90715027	1.0
66	0	0.7478299737	0	-17.59111786	0.3213531077	-87.70874023	1.0
67	0	0.7478299737	0	-17.41171265	0.06301423162	-87.3861618	1.0
[Spine1]
64	0	2.049309969	0	12.55933857	0.1147572249	-0.7766011953	1.0
65	0	2.049309969	0	12.61230087	0.1121351793	-0.5887619257	1.0
66	0	2.049309969	0	12.57774162	0.0505268313	-0.4990686774	1.0
67	0	2.049309969	0	12.67092609	-0.03353392705	-0.5097843409	1.0
[Neck]
64	0	2.231709957	0	5.385832787	-14.12617683	-85.88316345	1.0
65	0	2.231709957	0	5.491648674	-14.19661903	-85.92354584	1.0
66	0	2.231709957	0	5.445157051	-13.86789608	-86.02999115	1.0
67	0	2.231709957	0	5.164171219	-13.17146873	-86.33489227	1.0
[Head]
64	0	1.413589954	0.1823999882	-11.26402283	-21.22086525	-85.4589386	1.0
65	0	1.413589954	0.1823999882	-11.82095432	-21.26333809	-84.88106537	1.0
66	0	1.413589954	0.1823999882	-11.95926762	-20.93343163	-84.97866058	1.0
67	0	1.413589954	0.1823999882	-11.8771143	-20.29535675	-84.72511292	1.0
[LeftShoulder]
64	0.3649300039	1.825889945	-0.04271000251	-9.95293808	-8.541072845	3.983617306	1.0
65	0.3649300039	1.825889945	-0.04271000251	-10.24032784	-8.830247879	3.852140188	1.0
66	0.3649300039	1.825889945	-0.04271000251	-10.18062401	-8.876204491	3.745075703	1.0
67	0.3649300039	1.825889945	-0.04271000251	-10.19097137	-8.877325058	3.73239994	1.0
[LeftArm]
64	1.24003005	0	0	35.22061157	10.94846535	-79.95735168	1.0
65	1.24003005	0	0	36.539711	11.0112381	-80.51284027	1.0
66	1.24003005	0	0	37.2598114	10.84153175	-80.65357208	1.0
67	1.24003005	0	0	37.36997604	10.70014286	-80.40301514	1.0
[LeftForeArm]
64	2.847419977	0	0	-369.6316223	-10.89368725	351.8755188	1.0
65	2.847419977	0	0	-370.6626892	-10.53548336	352.6586914	1.0
66	2.847419977	0	0	-370.4191284	-10.871665	352.979126	1.0
67	2.847419977	0	0	-370.3138733	-11.92141247	353.339386	1.0
[LeftHand]
64	2.258270025	0	0	-10.35170937	-3.347028732	-1.939164042	1.0
65	2.258270025	0	0	-11.33391285	-2.720663786	-0.3084334731	1.0
66	2.258270025	0	0	-11.07257557	-2.675198555	-0.7057703137	1.0
67	2.258270025	0	0	-10.91864014	-3.386454582	-3.118121624	1.0
[RightShoulder]
64	-0.3646599948	1.825889945	-0.04271000251	-7.151921749	6.333910465	177.4831085	1.0
65	-0.3646599948	1.825889945	-0.04271000251	-7.173339844	6.463050842	177.6686859	1.0
66	-0.3646599948	1.825889945	-0.04271000251	-7.180249214	6.760625839	177.7195129	1.0
67	-0.3646599948	1.825889945	-0.04271000251	-7.271913528	6.865271568	177.6645813	1.0
[RightArm]
64	-1.24003005	0	0	41.87110519	-6.734473228	-97.65196228	1.0
65	-1.24003005	0	0	44.83775711	-6.121125221	-97.46491241	1.0
66	-1.24003005	0	0	46.05039978	-5.631877899	-97.94277954	1.0
67	-1.24003005	0	0	45.99378204	-5.330239773	-98.38574982	1.0
[RightForeArm]
64	-2.847419977	0	0	-0.1188466251	13.65233612	180.7553253	1.0
65	-2.847419977	0	0	-0.2891977727	13.2029438	179.9010162	1.0
66	-2.847419977	0	0	0.9080600739	14.11853027	179.9389343	1.0
67	-2.847419977	0	0	1.282877207	15.4050436	179.8606873	1.0
[RightHand]
64	-2.258270025	0	0	-0.2682618499	8.328572273	179.2000732	1.0
65	-2.258270025	0	0	-0.3810377121	7.783603191	178.4944	1.0
66	-2.258270025	0	0	0.7290540934	8.052425385	177.361084	1.0
67	-2.258270025	0	0	1.036313653	8.529860497	176.4621124	1.0
[LeftUpLeg]
64	0.9119900465	0	0	6.402621746	10.13633347	97.18275452	1.0
65	0.9119900465	0	0	6.515752792	12.28658581	97.29484558	1.0
66	0.9119900465	0	0	6.69122076	12.87233543	97.14225769	1.0
67	0.9119900465	0	0	6.870144844	11.72623539	96.99494934	1.0
[LeftLeg]
64	0	-4.371409893	0	-0.4957493842	11.28240871	89.19197845	1.0
65	0	-4.371409893	0	-0.576484561	10.57827091	89.0619812	1.0
66	0	-4.371409893	0	-0.824015379	10.80722332	88.97166443	1.0
67	0	-4.371409893	0	-1.030928373	11.69806099	88.75067902	1.0
[LeftFoot]
64	0	-3.918009996	0	-98.36608887	111.8413849	-46.33602905	1.0
65	0	-3.918009996	0	-99.22280121	111.5122604	-47.36766052	1.0
66	0	-3.918009996	0	-98.35539246	111.4575729	-46.57533264	1.0
67	0	-3.918009996	0	-95.64968872	111.8289871	-43.8703537	1.0
[LeftToeBase]
64	0	-0.5927900076	1.367989898	0	0	0	1.0
65	0	-0.5927900076	1.367989898	0	0	0	1.0
66	0	-0.5927900076	1.367989898	0	0	0	1.0
67	0	-0.5927900076	1.367989898	0	0	0	1.0
[RightUpLeg]
64	-0.9119900465	0	0	4.485326767	-17.05625916	92.15861511	1.0
65	-0.9119900465	0	0	4.07809639	-16.67152596	92.14891815	1.0
66	-0.9119900465	0	0	3.696240425	-15.67762947	92.14225769	1.0
67	-0.9119900465	0	0	3.482807636	-14.9888773	92.19999695	1.0
[RightLeg]
64	0	-4.371409893	0	-3.255236149	-9.529190063	92.61950684	1.0
65	0	-4.371409893	0	-3.053397894	-9.19951725	92.53492737	1.0
66	0	-4.371409893	0	-2.908476591	-9.313989639	92.45536804	1.0
67	0	-4.371409893	0	-2.84813714	-8.978131294	92.33940887	1.0
[RightFoot]
64	0	-3.918009996	0	46.73540497	62.43628693	88.28245544	1.0
65	0	-3.918009996	0	46.99021912	62.63941574	88.74182129	1.0
66	0	-3.918009996	0	46.96340179	62.78991699	88.99607086	1.0
67	0	-3.918009996	0	46.63124084	62.81931686	88.66825867	1.0
[RightToeBase]
64	0	-0.5927900076	1.367989898	0	0	0	1.0
65	0	-0.5927900076	1.367989898	0	0	0	1.0
66	0	-0.5927900076	1.367989898	0	0	0	1.0
67	0	-0.5927900076	1.367989898	0	0	0	1.0
[EndOfFile]
